<svg width="26" height="27" viewBox="0 0 26 27" fill="none" xmlns="http://www.w3.org/2000/svg">
<path d="M10.6667 0L20.3978 3.04095C20.9543 3.21489 21.3334 3.73041 21.3334 4.31359V6.66667H24C24.7364 6.66667 25.3334 7.26363 25.3334 8V10.6667H8V8C8 7.26363 8.59696 6.66667 9.33336 6.66667H18.6667V5.29333L10.6667 2.792L2.66667 5.29333V15.1659C2.66667 16.8257 3.43891 18.3845 4.74455 19.3904L4.99555 19.5724L10.6667 23.4387L15.7094 20H9.33336C8.59696 20 8 19.4031 8 18.6667V13.3333H25.3334V18.6667C25.3334 19.4031 24.7364 20 24 20L19.7066 20.0015C19.1911 20.6811 18.5636 21.2824 17.84 21.7757L10.6667 26.6667L3.49331 21.7757C1.30767 20.2855 0 17.8112 0 15.1659V4.31359C0 3.73041 0.379 3.21489 0.93564 3.04095L10.6667 0Z" fill="#FF6E42"/>
</svg>
