<svg width="16" height="27" viewBox="0 0 16 27" fill="none" xmlns="http://www.w3.org/2000/svg">
<path d="M9.14286 10.5H16L15.2381 13.5H9.14286V27H6.09524V13.5H0V10.5H6.09524V7.69166C6.09524 5.01709 6.37821 4.04724 6.90941 3.06946C7.44061 2.09169 8.22019 1.32432 9.21341 0.801405C10.2068 0.278475 11.1919 0 13.909 0C14.7045 0 15.4014 0.0750001 16 0.225V3H13.909C11.892 3 11.2777 3.11676 10.6507 3.44684C10.1885 3.69017 9.84396 4.02928 9.5968 4.48427C9.26141 5.10144 9.14286 5.70611 9.14286 7.69166V10.5Z" fill="white"/>
</svg>
