<svg width="28" height="29" viewBox="0 0 28 29" fill="none" xmlns="http://www.w3.org/2000/svg">
<path d="M12 1.3336C12.3519 1.3336 12.7 1.35205 13.0443 1.38177C12.3805 2.54753 12.0001 3.8962 12 5.3336C12 9.75188 15.5817 13.3336 20 13.3336C21.4375 13.3336 22.7847 12.9517 23.9505 12.288C23.9803 12.6326 24 12.9814 24 13.3336C24 16.1654 23.0176 18.7701 21.3749 20.8232L27.0847 26.5328L25.1992 28.4182L19.4896 22.7086C17.4364 24.3513 14.832 25.3336 12 25.3336C5.376 25.3336 0 19.9576 0 13.3336C0.00028 6.70984 5.37617 1.3336 12 1.3336ZM19.3724 0.426036C19.6077 -0.142012 20.3924 -0.142012 20.6276 0.426036L20.9648 1.24114C21.5408 2.63157 22.6153 3.74185 23.9661 4.3427L24.9232 4.76849C25.4701 5.01237 25.4703 5.80862 24.9232 6.05234L23.9101 6.50286C22.5931 7.08862 21.5379 8.15936 20.9519 9.50417L20.6224 10.2581C20.3819 10.8102 19.6183 10.8102 19.3776 10.2581L19.0495 9.50417C18.4635 8.15932 17.4069 7.08864 16.0899 6.50286L15.0768 6.05234C14.5299 5.80865 14.53 5.01234 15.0768 4.76849L16.0339 4.3427C17.3847 3.74185 18.4593 2.6316 19.0352 1.24114L19.3724 0.426036Z" fill="#FF6E42"/>
</svg>
