<svg width="27" height="27" viewBox="0 0 27 27" fill="none" xmlns="http://www.w3.org/2000/svg">
<path d="M13.1143 9.33436C14.5293 7.88904 16.3714 6.94286 18.5143 6.94286C23.2007 6.94286 27 10.742 27 15.4286V27H23.9143V15.4286C23.9143 12.4462 21.4966 10.0286 18.5143 10.0286C15.532 10.0286 13.1143 12.4462 13.1143 15.4286V27H10.0286V7.71429H13.1143V9.33436ZM2.31428 4.62857C1.03614 4.62857 0 3.59243 0 2.31429C0 1.03614 1.03614 0 2.31428 0C3.59242 0 4.62857 1.03614 4.62857 2.31429C4.62857 3.59243 3.59242 4.62857 2.31428 4.62857ZM0.771428 7.71429H3.85714V27H0.771428V7.71429Z" fill="white"/>
</svg>
