<svg width="31" height="32" viewBox="0 0 31 32" fill="none" xmlns="http://www.w3.org/2000/svg">
<path d="M17.4585 7.37347L16.2153 10.2213C15.1087 12.7554 13.1172 14.7727 10.6329 15.8755L7.21065 17.3945C6.12265 17.8775 6.12265 19.4604 7.21065 19.9433L10.5261 21.415C13.0742 22.5461 15.1015 24.6381 16.1891 27.2587L17.4485 30.2935C17.9158 31.4197 19.4719 31.4197 19.9393 30.2935L21.1987 27.2588C22.2863 24.6381 24.3136 22.5461 26.8617 21.415L30.1771 19.9433C31.2652 19.4604 31.2652 17.8775 30.1771 17.3945L26.7548 15.8755C24.2706 14.7727 22.279 12.7554 21.1725 10.2213L19.9292 7.37347C19.4513 6.27895 17.9365 6.27895 17.4585 7.37347ZM5.01029 0.439878L4.66065 1.24128C4.03732 2.67013 2.91461 3.80786 1.51381 4.4302L0.436579 4.90889C-0.146097 5.16772 -0.146097 6.01446 0.436579 6.27328L1.45346 6.7252C2.89039 7.36355 4.03321 8.54335 4.64592 10.0208L5.00491 10.8868C5.25523 11.4903 6.08965 11.4903 6.33997 10.8868L6.69895 10.0208C7.31152 8.54335 8.45435 7.36355 9.89127 6.7252L10.9083 6.27329C11.4908 6.01446 11.4908 5.16772 10.9083 4.90889L9.83106 4.4302C8.43012 3.80786 7.30755 2.67013 6.68422 1.24128L6.33445 0.439878C6.0786 -0.146765 5.26628 -0.146765 5.01029 0.439878Z" fill="white" fill-opacity="0.3"/>
</svg>
