<svg width="30" height="30" viewBox="0 0 30 30" fill="none" xmlns="http://www.w3.org/2000/svg">
<path d="M16.4324 6.93985L15.2623 9.62012C14.2208 12.0052 12.3464 13.9038 10.0083 14.9417L6.78736 16.3714C5.76336 16.826 5.76336 18.3157 6.78736 18.7703L9.90776 20.1554C12.306 21.22 14.214 23.1889 15.2376 25.6554L16.423 28.5117C16.8628 29.5716 18.3274 29.5716 18.7672 28.5117L19.9526 25.6554C20.9762 23.1889 22.8843 21.22 25.2825 20.1554L28.4029 18.7703C29.4269 18.3157 29.4269 16.826 28.4029 16.3715L25.1819 14.9417C22.8438 13.9039 20.9693 12.0052 19.928 9.62012L18.7578 6.93985C18.3079 5.90972 16.8823 5.90972 16.4324 6.93985ZM4.71643 0.414118L4.38736 1.16838C3.80069 2.51318 2.74403 3.58398 1.42563 4.16972L0.411761 4.62025C-0.13664 4.86385 -0.13664 5.66078 0.41176 5.90438L1.36883 6.32972C2.72123 6.93052 3.79683 8.04092 4.37349 9.43145L4.71136 10.2465C4.94696 10.8145 5.73229 10.8145 5.9679 10.2465L6.30576 9.43145C6.88229 8.04092 7.9579 6.93052 9.3103 6.32972L10.2675 5.90438C10.8158 5.66078 10.8158 4.86385 10.2675 4.62025L9.25363 4.16972C7.9351 3.58398 6.87856 2.51318 6.29189 1.16838L5.96269 0.414118C5.72189 -0.138016 4.95736 -0.138016 4.71643 0.414118Z" fill="white" fill-opacity="0.3"/>
</svg>
