<svg width="27" height="24" viewBox="0 0 27 24" fill="none" xmlns="http://www.w3.org/2000/svg">
<path d="M0 1.32453C0 0.593013 0.60708 0 1.3224 0H25.3443C26.0747 0 26.6667 0.593267 26.6667 1.32453V22.6755C26.6667 23.4069 26.0596 24 25.3443 24H1.3224C0.592067 24 0 23.4068 0 22.6755V1.32453ZM5.33333 16V18.6667H21.3333V16H5.33333ZM5.33333 5.33333V13.3333H13.3333V5.33333H5.33333ZM16 5.33333V8H21.3333V5.33333H16ZM16 10.6667V13.3333H21.3333V10.6667H16ZM8 8H10.6667V10.6667H8V8Z" fill="#FF6E42"/>
</svg>
