<svg width="27" height="25" viewBox="0 0 27 25" fill="none" xmlns="http://www.w3.org/2000/svg">
<path d="M14.2167 0.24836C13.7531 -0.0827867 13.1303 -0.0827867 12.6667 0.24836L0 9.29597L1.54997 11.4659L13.4416 2.97187L25.3333 11.4659L26.8833 9.29597L14.2167 0.24836ZM23.55 13.5817L14.2167 6.91503C13.7531 6.58388 13.1303 6.58388 12.6667 6.91503L3.33333 13.5817C2.98295 13.832 2.77499 14.236 2.77499 14.6667V23.3333C2.77499 24.0697 3.37193 24.6667 4.10832 24.6667H22.7749C23.5113 24.6667 24.1083 24.0697 24.1083 23.3333V14.6667C24.1083 14.236 23.9004 13.832 23.55 13.5817Z" fill="#FF6E42"/>
</svg>
