<svg width="30" height="30" viewBox="0 0 30 30" fill="none" xmlns="http://www.w3.org/2000/svg">
<path d="M16.7361 6.93985L15.5443 9.62012C14.4836 12.0052 12.5746 13.9038 10.1932 14.9417L6.91276 16.3714C5.86984 16.826 5.86984 18.3157 6.91276 18.7703L10.0908 20.1554C12.5334 21.22 14.4767 23.1889 15.5192 25.6554L16.7264 28.5117C17.1744 29.5716 18.666 29.5716 19.114 28.5117L20.3213 25.6554C21.3638 23.1889 23.3071 21.22 25.7497 20.1554L28.9277 18.7703C29.9707 18.3157 29.9707 16.826 28.9277 16.3715L25.6472 14.9417C23.2659 13.9039 21.3568 12.0052 20.2962 9.62012L19.1044 6.93985C18.6463 5.90972 17.1943 5.90972 16.7361 6.93985ZM4.80356 0.414118L4.46841 1.16838C3.8709 2.51318 2.79471 3.58398 1.45194 4.16972L0.419339 4.62025C-0.139196 4.86385 -0.139196 5.66078 0.419338 5.90438L1.39409 6.32972C2.77149 6.93052 3.86696 8.04092 4.45429 9.43145L4.7984 10.2465C5.03835 10.8145 5.8382 10.8145 6.07815 10.2465L6.42226 9.43145C7.00945 8.04092 8.10493 6.93052 9.48232 6.32972L10.4572 5.90438C11.0156 5.66078 11.0156 4.86385 10.4572 4.62025L9.42461 4.16972C8.08171 3.58398 7.00565 2.51318 6.40814 1.16838L6.07286 0.414118C5.82761 -0.138016 5.04895 -0.138016 4.80356 0.414118Z" fill="white" fill-opacity="0.1"/>
</svg>
