<svg width="44" height="44" viewBox="0 0 44 44" fill="none" xmlns="http://www.w3.org/2000/svg">
<path d="M24.6482 10.4098L22.893 14.4302C21.3308 18.0078 18.5192 20.8558 15.012 22.4126L10.1806 24.5572C8.64456 25.239 8.64456 27.4736 10.1806 28.1554L14.8612 30.2331C18.4586 31.8299 21.3206 34.7834 22.856 38.4831L24.634 42.7675C25.2938 44.3574 27.4906 44.3574 28.1504 42.7675L29.9284 38.4831C31.4638 34.7834 34.3259 31.8299 37.9233 30.2331L42.6038 28.1554C44.1399 27.4736 44.1399 25.239 42.6038 24.5572L37.7724 22.4126C34.2652 20.8558 31.4535 18.0078 29.8915 14.4302L28.1362 10.4098C27.4614 8.86457 25.323 8.86457 24.6482 10.4098ZM7.07416 0.621174L6.58056 1.75257C5.70056 3.76977 4.11556 5.37597 2.13796 6.25457L0.617156 6.93037C-0.205445 7.29577 -0.205445 8.49117 0.617156 8.85657L2.05276 9.49457C4.08136 10.3958 5.69475 12.0614 6.55976 14.1472L7.06656 15.3698C7.41996 16.2218 8.59796 16.2218 8.95136 15.3698L9.45816 14.1472C10.323 12.0614 11.9364 10.3958 13.965 9.49457L15.4008 8.85657C16.2232 8.49117 16.2232 7.29577 15.4008 6.93038L13.88 6.25458C11.9022 5.37597 10.3174 3.76977 9.43735 1.75257L8.94356 0.621175C8.58236 -0.207027 7.43556 -0.207027 7.07416 0.621174Z" fill="white" fill-opacity="0.3"/>
</svg>
